<svg width="71" height="71" viewBox="0 0 71 71" fill="none" xmlns="http://www.w3.org/2000/svg">
<mask id="mask0" mask-type="alpha" maskUnits="userSpaceOnUse" x="0" y="0" width="71" height="71">
<path d="M69.6545 37.2539C68.9369 37.2539 68.3551 36.6721 68.3551 35.9545C68.3551 35.2369 68.9369 34.6551 69.6545 34.6551C70.3721 34.6551 70.9539 35.2369 70.9539 35.9545C70.9539 36.6721 70.3721 37.2539 69.6545 37.2539Z" fill="white"/>
<path d="M68.8108 43.6036C68.1059 43.4692 67.6435 42.7888 67.7779 42.0838C67.9124 41.3789 68.5928 40.9165 69.2977 41.0509C70.0026 41.1854 70.4651 41.8658 70.3306 42.5707C70.1962 43.2757 69.5157 43.7381 68.8108 43.6036Z" fill="white"/>
<path d="M66.7904 49.6546C66.1234 49.3899 65.7972 48.6347 66.0619 47.9676C66.3265 47.3006 67.0818 46.9744 67.7488 47.239C68.4159 47.5037 68.7421 48.259 68.4774 48.926C68.2128 49.593 67.4575 49.9192 66.7904 49.6546Z" fill="white"/>
<path d="M63.6088 55.2911C63.0048 54.9037 62.8292 54.0999 63.2167 53.4959C63.6041 52.8918 64.4079 52.7163 65.0119 53.1037C65.6159 53.4912 65.7915 54.2949 65.4041 54.899C65.0166 55.503 64.2129 55.6786 63.6088 55.2911Z" fill="white"/>
<path d="M59.4393 60.1959C58.9191 59.7015 58.8982 58.8791 59.3925 58.3589C59.8869 57.8387 60.7093 57.8178 61.2295 58.3122C61.7497 58.8066 61.7706 59.629 61.2762 60.1492C60.7819 60.6693 59.9594 60.6903 59.4393 60.1959Z" fill="white"/>
<path d="M54.4222 64.2256C54.0043 63.6422 54.1384 62.8305 54.7218 62.4126C55.3052 61.9948 56.1169 62.1289 56.5348 62.7123C56.9527 63.2957 56.8185 64.1074 56.2351 64.5253C55.6517 64.9432 54.84 64.809 54.4222 64.2256Z" fill="white"/>
<path d="M48.7298 67.233C48.4307 66.5807 48.717 65.8094 49.3693 65.5103C50.0216 65.2112 50.7929 65.4975 51.092 66.1498C51.3911 66.8021 51.1048 67.5734 50.4525 67.8725C49.8003 68.1716 49.029 67.8853 48.7298 67.233Z" fill="white"/>
<path d="M42.576 69.0993C42.4068 68.4019 42.8349 67.6994 43.5323 67.5302C44.2297 67.361 44.9322 67.7891 45.1014 68.4865C45.2706 69.1839 44.8425 69.8864 44.1451 70.0556C43.4477 70.2249 42.7452 69.7967 42.576 69.0993Z" fill="white"/>
<path d="M36.1812 69.7655C36.1452 69.0488 36.697 68.4386 37.4138 68.4026C38.1305 68.3666 38.7407 68.9184 38.7766 69.6352C38.8126 70.3519 38.2608 70.9621 37.5441 70.998C36.8274 71.034 36.2172 70.4822 36.1812 69.7655Z" fill="white"/>
<path d="M29.6452 69.1947C29.7471 68.4844 30.4056 67.9912 31.1159 68.0931C31.8262 68.195 32.3195 68.8535 32.2175 69.5638C32.1156 70.2742 31.4571 70.7674 30.7468 70.6655C30.0365 70.5635 29.5432 69.9051 29.6452 69.1947Z" fill="white"/>
<path d="M23.4676 67.4162C23.7045 66.7388 24.4457 66.3817 25.123 66.6186C25.8004 66.8555 26.1575 67.5967 25.9206 68.2741C25.6837 68.9515 24.9426 69.3086 24.2652 69.0717C23.5878 68.8348 23.2307 68.0936 23.4676 67.4162Z" fill="white"/>
<path d="M17.7473 64.5025C18.1077 63.882 18.9029 63.6711 19.5235 64.0315C20.144 64.392 20.3548 65.1872 19.9944 65.8077C19.634 66.4283 18.8387 66.6391 18.2182 66.2787C17.5977 65.9183 17.3868 65.123 17.7473 64.5025Z" fill="white"/>
<path d="M12.6797 60.5572C13.1509 60.0159 13.9717 59.9592 14.5129 60.4304C15.0541 60.9016 15.1109 61.7223 14.6397 62.2636C14.1685 62.8048 13.3477 62.8616 12.8065 62.3904C12.2653 61.9191 12.2085 61.0984 12.6797 60.5572Z" fill="white"/>
<path d="M8.44778 55.7344C9.01231 55.2914 9.82911 55.3899 10.2721 55.9544C10.7152 56.519 10.6166 57.3358 10.0521 57.7788C9.48757 58.2218 8.67078 58.1233 8.22776 57.5588C7.78473 56.9942 7.88324 56.1774 8.44778 55.7344Z" fill="white"/>
<path d="M5.19598 50.1905C5.83431 49.8626 6.61759 50.1143 6.94547 50.7526C7.27336 51.3909 7.02169 52.1742 6.38336 52.5021C5.74503 52.83 4.96176 52.5783 4.63387 51.94C4.30599 51.3017 4.55765 50.5184 5.19598 50.1905Z" fill="white"/>
<path d="M3.06314 44.1552C3.75209 43.9544 4.47337 44.3501 4.67416 45.0391C4.87495 45.728 4.47921 46.4493 3.79026 46.6501C3.1013 46.8509 2.38002 46.4552 2.17923 45.7662C1.97844 45.0773 2.37418 44.356 3.06314 44.1552Z" fill="white"/>
<path d="M2.11296 37.8148C2.8275 37.7485 3.46052 38.274 3.52684 38.9885C3.59316 39.7031 3.06767 40.3361 2.35312 40.4024C1.63858 40.4687 1.00556 39.9432 0.939241 39.2287C0.87292 38.5141 1.39841 37.8811 2.11296 37.8148Z" fill="white"/>
<path d="M2.38833 31.2455C3.10234 31.3174 3.62295 31.9544 3.55113 32.6684C3.47931 33.3824 2.84227 33.903 2.12825 33.8312C1.41424 33.7594 0.893635 33.1223 0.965453 32.4083C1.03727 31.6943 1.67431 31.1737 2.38833 31.2455Z" fill="white"/>
<path d="M3.87236 25.015C4.55978 25.221 4.95005 25.9452 4.74405 26.6326C4.53805 27.32 3.8138 27.7103 3.12638 27.5043C2.43897 27.2983 2.0487 26.5741 2.2547 25.8866C2.46069 25.1992 3.18495 24.809 3.87236 25.015Z" fill="white"/>
<path d="M6.49802 19.2059C7.1339 19.5385 7.37976 20.3236 7.04716 20.9595C6.71456 21.5954 5.92945 21.8412 5.29356 21.5086C4.65767 21.176 4.41181 20.3909 4.74442 19.755C5.07702 19.1191 5.86213 18.8733 6.49802 19.2059Z" fill="white"/>
<path d="M10.2123 13.942C10.7736 14.3891 10.8662 15.2066 10.419 15.7679C9.9719 16.3292 9.15441 16.4218 8.59312 15.9746C8.03182 15.5275 7.93927 14.71 8.3864 14.1487C8.83352 13.5874 9.65101 13.4949 10.2123 13.942Z" fill="white"/>
<path d="M14.8225 9.49913C15.2898 10.0438 15.227 10.8641 14.6824 11.3314C14.1377 11.7986 13.3174 11.7359 12.8501 11.1912C12.3829 10.6466 12.4456 9.82626 12.9903 9.359C13.5349 8.89174 14.3552 8.95448 14.8225 9.49913Z" fill="white"/>
<path d="M20.2142 5.98487C20.5701 6.60804 20.3534 7.4017 19.7302 7.75756C19.107 8.11341 18.3134 7.8967 17.9575 7.27353C17.6017 6.65036 17.8184 5.8567 18.4416 5.50085C19.0647 5.145 19.8584 5.3617 20.2142 5.98487Z" fill="white"/>
<path d="M26.0723 3.59205C26.3041 4.27121 25.9414 5.00967 25.2623 5.24146C24.5831 5.47324 23.8446 5.11058 23.6129 4.43143C23.3811 3.75227 23.7437 3.01381 24.4229 2.78202C25.102 2.55024 25.8405 2.9129 26.0723 3.59205Z" fill="white"/>
<path d="M32.5355 2.31009C32.632 3.02119 32.1337 3.67586 31.4226 3.77233C30.7115 3.8688 30.0568 3.37054 29.9604 2.65944C29.8639 1.94833 30.3622 1.29366 31.0733 1.1972C31.7844 1.10073 32.439 1.59898 32.5355 2.31009Z" fill="white"/>
<path d="M39.1315 2.30229C39.09 3.01871 38.4755 3.56583 37.7591 3.52432C37.0427 3.48281 36.4956 2.86839 36.5371 2.15197C36.5786 1.43556 37.193 0.888438 37.9094 0.929949C38.6259 0.971459 39.173 1.58588 39.1315 2.30229Z" fill="white"/>
<path d="M45.2645 3.47214C45.09 4.16822 44.3843 4.59102 43.6882 4.41651C42.9921 4.24199 42.5693 3.53624 42.7438 2.84016C42.9183 2.14409 43.6241 1.72128 44.3202 1.8958C45.0162 2.07032 45.439 2.77607 45.2645 3.47214Z" fill="white"/>
<path d="M51.2459 5.84039C50.9419 6.49044 50.1685 6.771 49.5185 6.46702C48.8684 6.16304 48.5879 5.38964 48.8919 4.73959C49.1958 4.08953 49.9692 3.80898 50.6193 4.11296C51.2693 4.41694 51.5499 5.19033 51.2459 5.84039Z" fill="white"/>
<path d="M56.7179 9.33975C56.2958 9.92007 55.4831 10.0483 54.9028 9.62616C54.3225 9.20403 54.1943 8.39137 54.6164 7.81105C55.0385 7.23073 55.8512 7.10249 56.4315 7.52463C57.0118 7.94677 57.1401 8.75942 56.7179 9.33975Z" fill="white"/>
<path d="M61.3779 13.767C60.8541 14.2576 60.0319 14.2307 59.5413 13.7069C59.0507 13.1832 59.0776 12.3609 59.6014 11.8704C60.1251 11.3798 60.9474 11.4067 61.438 11.9304C61.9285 12.4542 61.9016 13.2765 61.3779 13.767Z" fill="white"/>
<path d="M65.1289 19.0061C64.522 19.3891 63.7195 19.2077 63.3365 18.6008C62.9535 17.9939 63.135 17.1915 63.7419 16.8085C64.3487 16.4255 65.1512 16.6069 65.5342 17.2138C65.9172 17.8207 65.7357 18.6231 65.1289 19.0061Z" fill="white"/>
<path d="M67.8426 24.9349C67.1736 25.1946 66.4208 24.8627 66.1611 24.1937C65.9015 23.5247 66.2333 22.7719 66.9023 22.5123C67.5713 22.2526 68.3242 22.5845 68.5838 23.2535C68.8435 23.9225 68.5116 24.6753 67.8426 24.9349Z" fill="white"/>
<path d="M69.3326 31.0976C68.6266 31.2267 67.9498 30.7591 67.8207 30.0531C67.6916 29.3472 68.1593 28.6703 68.8652 28.5413C69.5711 28.4122 70.248 28.8799 70.3771 29.5858C70.5061 30.2917 70.0385 30.9686 69.3326 31.0976Z" fill="white"/>
</mask>
<g mask="url(#mask0)">
<circle opacity="0.3" cx="35.9021" cy="35.9548" r="49.3757" fill="white"/>
<path d="M35.9021 -13.4209C25.569 -13.4209 15.4962 -10.1791 7.10285 -4.1521C-1.29054 1.87486 -7.58157 10.3832 -10.884 20.1744C-14.1865 29.9656 -14.3339 40.5461 -11.3055 50.4255C-8.27719 60.3049 -2.22567 68.9853 5.99653 75.2437C14.2187 81.5022 24.1972 85.0235 34.5263 85.3114C44.8554 85.5993 55.0146 82.6394 63.5726 76.8486C72.1307 71.0578 78.6564 62.7281 82.2303 53.0327C85.8043 43.3373 86.2465 32.765 83.4946 22.8051L35.9021 35.9548V-13.4209Z" fill="white"/>
</g>
</svg>
