<svg width="20" height="27" viewBox="0 0 20 27" fill="none" xmlns="http://www.w3.org/2000/svg">
<path d="M9.85366 26C14.7434 26 18.7073 22.0361 18.7073 17.1463C18.7073 16.0757 18.329 14.7962 17.811 13.5143C17.2828 12.207 16.5648 10.792 15.7955 9.41688C14.2559 6.66506 12.4695 3.99994 11.4659 2.55105C10.6815 1.41843 9.02586 1.41842 8.24138 2.55105C7.23785 3.99994 5.45138 6.66506 3.91186 9.41688C3.14253 10.792 2.42456 12.207 1.89631 13.5143C1.37833 14.7962 1 16.0757 1 17.1463C1 22.0361 4.96392 26 9.85366 26Z" fill="#6B90DA" stroke="white" stroke-width="2"/>
<path d="M9.85366 23.878C6.13584 23.878 3.12195 20.7439 3.12195 16.8779H3.96341C3.96341 20.2607 6.60056 23.003 9.85366 23.003V23.878Z" fill="white"/>
</svg>
