<svg width="46" height="50" viewBox="0 0 46 50" fill="none" xmlns="http://www.w3.org/2000/svg">
<path d="M35.2495 39.0917L34.3011 37.9296L35.2495 39.0917ZM42.9299 49.0511C43.5104 49.6421 44.4601 49.6506 45.0511 49.0701C45.6421 48.4896 45.6506 47.5399 45.0701 46.9489L42.9299 49.0511ZM24.4728 15.8868C24.4728 15.0584 23.8012 14.3868 22.9728 14.3868C22.1443 14.3868 21.4728 15.0584 21.4728 15.8868H24.4728ZM21.4728 30.8151C21.4728 31.6435 22.1443 32.3151 22.9728 32.3151C23.8012 32.3151 24.4728 31.6435 24.4728 30.8151H21.4728ZM15.6408 21.8509C14.8124 21.8509 14.1408 22.5225 14.1408 23.3509C14.1408 24.1794 14.8124 24.8509 15.6408 24.8509V21.8509ZM30.3047 24.8509C31.1331 24.8509 31.8047 24.1794 31.8047 23.3509C31.8047 22.5225 31.1331 21.8509 30.3047 21.8509V24.8509ZM22.4612 42.1604C12.0144 42.1604 3.5 33.5313 3.5 22.8302H0.5C0.5 35.1374 10.3072 45.1604 22.4612 45.1604V42.1604ZM3.5 22.8302C3.5 12.129 12.0144 3.5 22.4612 3.5V0.5C10.3072 0.5 0.5 10.523 0.5 22.8302H3.5ZM22.4612 3.5C32.9081 3.5 41.4225 12.129 41.4225 22.8302H44.4225C44.4225 10.523 34.6153 0.5 22.4612 0.5V3.5ZM41.4225 22.8302C41.4225 28.9444 38.6403 34.3885 34.3011 37.9296L36.1979 40.2538C41.2142 36.1601 44.4225 29.8723 44.4225 22.8302H41.4225ZM34.3011 37.9296C31.0541 40.5794 26.9395 42.1604 22.4612 42.1604V45.1604C27.6606 45.1604 32.439 43.3214 36.1979 40.2538L34.3011 37.9296ZM34.1794 40.1429L42.9299 49.0511L45.0701 46.9489L36.3196 38.0406L34.1794 40.1429ZM21.4728 15.8868V23.3509H24.4728V15.8868H21.4728ZM21.4728 23.3509V30.8151H24.4728V23.3509H21.4728ZM15.6408 24.8509H22.9728V21.8509H15.6408V24.8509ZM22.9728 24.8509H30.3047V21.8509H22.9728V24.8509Z" fill="#598AFC"/>
</svg>
