<svg width="86" height="86" viewBox="0 0 86 86" fill="none" xmlns="http://www.w3.org/2000/svg">
<mask id="mask0" mask-type="alpha" maskUnits="userSpaceOnUse" x="0" y="0" width="86" height="86">
<path d="M1.59135 41.3268C2.47018 41.3268 3.18261 42.0392 3.18261 42.918C3.18261 43.7968 2.47018 44.5093 1.59135 44.5093C0.712521 44.5093 9.5633e-05 43.7968 9.57183e-05 42.918C9.58036e-05 42.0392 0.712521 41.3268 1.59135 41.3268Z" fill="white"/>
<path d="M2.62457 33.5505C3.48784 33.7152 4.05417 34.5485 3.88952 35.4117C3.72486 36.275 2.89156 36.8413 2.02829 36.6767C1.16503 36.512 0.598699 35.6787 0.763356 34.8155C0.928014 33.9522 1.7613 33.3859 2.62457 33.5505Z" fill="white"/>
<path d="M5.09882 26.1403C5.9157 26.4644 6.31518 27.3893 5.99107 28.2062C5.66697 29.0231 4.74201 29.4225 3.92513 29.0984C3.10824 28.7743 2.70878 27.8494 3.03288 27.0325C3.35699 26.2156 4.28194 25.8162 5.09882 26.1403Z" fill="white"/>
<path d="M8.99518 19.2375C9.73491 19.712 9.94993 20.6963 9.47544 21.436C9.00095 22.1757 8.01663 22.3908 7.2769 21.9163C6.53718 21.4418 6.32216 20.4575 6.79664 19.7177C7.27113 18.978 8.25545 18.763 8.99518 19.2375Z" fill="white"/>
<path d="M14.1014 13.2309C14.7385 13.8363 14.7641 14.8435 14.1587 15.4805C13.5532 16.1175 12.546 16.1432 11.909 15.5377C11.272 14.9323 11.2464 13.9251 11.8518 13.2881C12.4572 12.6511 13.4644 12.6254 14.1014 13.2309Z" fill="white"/>
<path d="M20.2456 8.29587C20.7574 9.01032 20.5931 10.0044 19.8786 10.5161C19.1642 11.0279 18.1701 10.8636 17.6584 10.1491C17.1466 9.43469 17.3109 8.44065 18.0254 7.92888C18.7398 7.41712 19.7338 7.58142 20.2456 8.29587Z" fill="white"/>
<path d="M27.2167 4.61286C27.583 5.41169 27.2324 6.35625 26.4336 6.72258C25.6348 7.08892 24.6902 6.73831 24.3239 5.93947C23.9575 5.14064 24.3082 4.19608 25.107 3.82975C25.9058 3.46341 26.8504 3.81402 27.2167 4.61286Z" fill="white"/>
<path d="M34.753 2.32732C34.9602 3.18137 34.4359 4.0417 33.5818 4.24894C32.7278 4.45616 31.8675 3.93182 31.6602 3.07777C31.453 2.22373 31.9773 1.36339 32.8314 1.15616C33.6854 0.948925 34.5458 1.47328 34.753 2.32732Z" fill="white"/>
<path d="M42.5844 1.5115C42.6284 2.38923 41.9526 3.13649 41.0749 3.18055C40.1972 3.22462 39.4499 2.54881 39.4059 1.67109C39.3618 0.793362 40.0376 0.0461085 40.9153 0.00204115C41.7931 -0.0420262 42.5403 0.633778 42.5844 1.5115Z" fill="white"/>
<path d="M50.5887 2.21047C50.4639 3.08039 49.6575 3.68441 48.7876 3.55959C47.9176 3.43477 47.3136 2.62837 47.4384 1.75845C47.5633 0.888532 48.3697 0.284512 49.2396 0.409337C50.1095 0.534162 50.7135 1.34055 50.5887 2.21047Z" fill="white"/>
<path d="M58.1541 4.38851C57.8639 5.21808 56.9563 5.65539 56.1267 5.36528C55.2971 5.07516 54.8598 4.16749 55.1499 3.33793C55.4401 2.50837 56.3477 2.07105 57.1773 2.36116C58.0069 2.65127 58.4442 3.55895 58.1541 4.38851Z" fill="white"/>
<path d="M65.1594 7.95682C64.718 8.71675 63.7441 8.97496 62.9842 8.53355C62.2243 8.09215 61.9661 7.11827 62.4075 6.35834C62.8489 5.5984 63.8228 5.34019 64.5827 5.78159C65.3426 6.223 65.6008 7.19688 65.1594 7.95682Z" fill="white"/>
<path d="M71.3654 12.7885C70.7883 13.4513 69.7832 13.5208 69.1204 12.9437C68.4576 12.3667 68.388 11.3615 68.9651 10.6987C69.5422 10.0359 70.5473 9.96637 71.2101 10.5434C71.8729 11.1205 71.9425 12.1256 71.3654 12.7885Z" fill="white"/>
<path d="M76.548 18.6946C75.8567 19.2372 74.8564 19.1165 74.3138 18.4252C73.7713 17.7338 73.8919 16.7335 74.5833 16.191C75.2746 15.6484 76.2749 15.7691 76.8175 16.4604C77.36 17.1518 77.2394 18.1521 76.548 18.6946Z" fill="white"/>
<path d="M80.5303 25.484C79.7486 25.8855 78.7894 25.5773 78.3878 24.7956C77.9863 24.0138 78.2945 23.0546 79.0762 22.6531C79.8579 22.2515 80.8172 22.5597 81.2187 23.3415C81.6203 24.1232 81.3121 25.0824 80.5303 25.484Z" fill="white"/>
<path d="M83.1423 32.8751C82.2986 33.121 81.4153 32.6363 81.1694 31.7926C80.9235 30.9489 81.4081 30.0656 82.2518 29.8197C83.0956 29.5738 83.9789 30.0584 84.2248 30.9021C84.4707 31.7459 83.986 32.6292 83.1423 32.8751Z" fill="white"/>
<path d="M84.3059 40.6398C83.4309 40.721 82.6557 40.0775 82.5744 39.2024C82.4932 38.3274 83.1368 37.5521 84.0118 37.4709C84.8869 37.3897 85.6621 38.0332 85.7433 38.9083C85.8246 39.7834 85.181 40.5586 84.3059 40.6398Z" fill="white"/>
<path d="M83.9687 48.6849C83.0943 48.5969 82.4567 47.8168 82.5447 46.9423C82.6326 46.0679 83.4128 45.4304 84.2872 45.5183C85.1616 45.6063 85.7992 46.3864 85.7112 47.2608C85.6233 48.1353 84.8431 48.7728 83.9687 48.6849Z" fill="white"/>
<path d="M82.1513 56.3151C81.3094 56.0628 80.8315 55.1759 81.0838 54.334C81.3361 53.4922 82.223 53.0143 83.0649 53.2665C83.9067 53.5188 84.3846 54.4058 84.1324 55.2476C83.8801 56.0894 82.9931 56.5674 82.1513 56.3151Z" fill="white"/>
<path d="M78.9358 63.4292C78.1571 63.0219 77.856 62.0604 78.2633 61.2817C78.6706 60.5029 79.6321 60.2018 80.4108 60.6092C81.1896 61.0165 81.4907 61.978 81.0833 62.7567C80.676 63.5354 79.7145 63.8365 78.9358 63.4292Z" fill="white"/>
<path d="M74.3871 69.8756C73.6997 69.328 73.5864 68.3269 74.1339 67.6395C74.6815 66.9521 75.6826 66.8387 76.37 67.3863C77.0574 67.9339 77.1708 68.935 76.6232 69.6224C76.0756 70.3098 75.0745 70.4231 74.3871 69.8756Z" fill="white"/>
<path d="M68.7412 75.3165C68.169 74.6495 68.2458 73.6449 68.9128 73.0727C69.5798 72.5005 70.5844 72.5773 71.1567 73.2443C71.7289 73.9113 71.6521 74.9159 70.9851 75.4881C70.3181 76.0604 69.3135 75.9835 68.7412 75.3165Z" fill="white"/>
<path d="M62.1382 79.6203C61.7025 78.8571 61.9678 77.8851 62.731 77.4494C63.4942 77.0136 64.4661 77.2789 64.9019 78.0421C65.3377 78.8053 65.0723 79.7772 64.3092 80.213C63.546 80.6488 62.574 80.3834 62.1382 79.6203Z" fill="white"/>
<path d="M54.9642 82.5506C54.6803 81.7189 55.1245 80.8145 55.9562 80.5307C56.7879 80.2468 57.6923 80.691 57.9761 81.5227C58.26 82.3544 57.8159 83.2588 56.9841 83.5426C56.1524 83.8265 55.2481 83.3823 54.9642 82.5506Z" fill="white"/>
<path d="M47.049 84.1206C46.9309 83.2497 47.5411 82.448 48.4119 82.3298C49.2828 82.2117 50.0845 82.8219 50.2027 83.6928C50.3208 84.5636 49.7106 85.3653 48.8398 85.4835C47.9689 85.6016 47.1672 84.9914 47.049 84.1206Z" fill="white"/>
<path d="M38.9713 84.1301C39.0221 83.2528 39.7746 82.5827 40.652 82.6336C41.5293 82.6844 42.1993 83.4369 42.1485 84.3142C42.0977 85.1916 41.3452 85.8616 40.4679 85.8108C39.5905 85.7599 38.9205 85.0075 38.9713 84.1301Z" fill="white"/>
<path d="M31.4605 82.6975C31.6742 81.845 32.5385 81.3272 33.3909 81.541C34.2434 81.7547 34.7612 82.619 34.5475 83.4714C34.3337 84.3239 33.4694 84.8417 32.617 84.6279C31.7645 84.4142 31.2468 83.5499 31.4605 82.6975Z" fill="white"/>
<path d="M24.1354 79.7972C24.5077 79.0011 25.4548 78.6575 26.2509 79.0298C27.047 79.4021 27.3905 80.3492 27.0183 81.1453C26.646 81.9414 25.6989 82.285 24.9028 81.9127C24.1067 81.5404 23.7631 80.5933 24.1354 79.7972Z" fill="white"/>
<path d="M17.4341 75.5117C17.9511 74.801 18.9463 74.644 19.657 75.161C20.3677 75.6779 20.5247 76.6731 20.0077 77.3838C19.4908 78.0945 18.4955 78.2516 17.7849 77.7346C17.0742 77.2176 16.9171 76.2224 17.4341 75.5117Z" fill="white"/>
<path d="M11.7273 70.0899C12.3687 69.4891 13.3757 69.522 13.9765 70.1634C14.5772 70.8049 14.5443 71.8118 13.9029 72.4126C13.2615 73.0134 12.2545 72.9805 11.6537 72.339C11.0529 71.6976 11.0859 70.6906 11.7273 70.0899Z" fill="white"/>
<path d="M7.13368 63.6738C7.87688 63.2048 8.85959 63.427 9.32864 64.1702C9.79768 64.9134 9.57544 65.8961 8.83225 66.3652C8.08906 66.8342 7.10635 66.612 6.6373 65.8688C6.16825 65.1256 6.39049 64.1429 7.13368 63.6738Z" fill="white"/>
<path d="M3.81028 56.4131C4.62957 56.0952 5.55151 56.5015 5.86948 57.3208C6.18746 58.1401 5.78106 59.0621 4.96178 59.38C4.14249 59.698 3.22055 59.2916 2.90258 58.4723C2.58461 57.653 2.991 56.7311 3.81028 56.4131Z" fill="white"/>
<path d="M1.98563 48.866C2.85012 48.7079 3.67907 49.2806 3.83712 50.1451C3.99517 51.0096 3.42248 51.8386 2.55798 51.9966C1.69348 52.1547 0.864543 51.582 0.706493 50.7175C0.548443 49.853 1.12113 49.024 1.98563 48.866Z" fill="white"/>
</mask>
<g mask="url(#mask0)">
<circle opacity="0.3" cx="42.9257" cy="42.9169" r="60.4679" transform="rotate(-180 42.9257 42.9169)" fill="#C3D2F5"/>
<path d="M42.9257 103.385C55.5801 103.385 67.9157 99.4147 78.1946 92.0338C88.4736 84.6528 96.1779 74.2331 100.222 62.2424C104.267 50.2516 104.447 37.2942 100.738 25.1954C97.0298 13.0966 89.6188 2.46628 79.5495 -5.19817C69.4802 -12.8626 57.26 -17.1749 44.6105 -17.5275C31.961 -17.8801 19.5196 -14.2552 9.03903 -7.16357C-1.44158 -0.0719229 -9.43321 10.1291 -13.8101 22.0025C-18.1869 33.8759 -18.7285 46.8233 -15.3583 59.0207L42.9257 42.9169L42.9257 103.385Z" fill="#C3D2F5"/>
</g>
</svg>
