<svg width="35" height="44" viewBox="0 0 35 44" fill="none" xmlns="http://www.w3.org/2000/svg">
<path d="M21.8687 40.5769L29.931 33.2405C31.3827 31.7888 31.3846 29.424 29.9193 27.9587C29.455 27.4943 28.8989 27.1782 28.3057 27.0143C29.4237 25.5549 29.3125 23.4495 27.9681 22.1051C27.5037 21.6427 26.9476 21.3266 26.3564 21.1587C27.4705 19.6993 27.3613 17.5939 26.0169 16.2515C25.5623 15.7969 25.0199 15.4847 24.4423 15.315L27.8998 11.8574C29.3515 10.4058 29.3534 8.04092 27.8881 6.57561C26.4364 5.12201 24.0716 5.12201 22.618 6.57561L9.33436 19.8593L8.09734 11.9804C7.79296 9.85159 5.94323 8.2458 3.79105 8.2458C2.17738 8.2458 0.864267 9.55892 0.864267 11.1726L0.864266 29.5703C0.864266 32.4366 1.98038 35.1312 4.00763 37.1584L7.07681 40.2276C9.10022 42.253 11.7929 43.367 14.6552 43.367C17.3284 43.367 19.8902 42.3759 21.8687 40.5769ZM8.45633 38.8481L5.38714 35.7789C3.72867 34.1204 2.81551 31.9156 2.81551 29.5702L2.81552 11.1725C2.81552 10.634 3.25261 10.1969 3.79114 10.1969C4.97749 10.1969 5.99793 11.0827 6.16768 12.2709L7.70525 22.0562C7.76186 22.4191 8.01741 22.7176 8.3667 22.8328C8.71398 22.9459 9.09839 22.8543 9.35787 22.5947L23.9975 7.95504C24.6902 7.2624 25.818 7.2624 26.5223 7.96483C26.8677 8.31211 27.0414 8.76677 27.0414 9.22142C27.0414 9.67608 26.8677 10.1306 26.5204 10.478L16.7586 20.2398C16.3781 20.6203 16.3781 21.2389 16.7586 21.6193C16.9498 21.8086 17.1995 21.9043 17.4493 21.9043C17.6991 21.9043 17.9488 21.8087 18.14 21.6174L22.1263 17.6312C22.8189 16.9385 23.9448 16.9385 24.6492 17.6429C25.3399 18.3336 25.3399 19.4633 24.6492 20.154L20.661 24.1422C20.2805 24.5227 20.2805 25.1413 20.661 25.5218C20.8522 25.711 21.1019 25.8067 21.3517 25.8067C21.6015 25.8067 21.8512 25.7111 22.0424 25.5198L24.0776 23.4847C24.7702 22.7921 25.8961 22.7921 26.6004 23.4964C27.2912 24.1871 27.2912 25.3169 26.6004 26.0076L24.5556 28.0524C24.5537 28.0563 24.5537 28.0543 24.5537 28.0543L24.5518 28.0562C24.5499 28.0582 24.5499 28.0582 24.5499 28.0582C24.5479 28.0601 24.5479 28.0601 24.5479 28.0601L24.5479 28.062C24.5479 28.0639 24.546 28.0639 24.546 28.0639C24.1831 28.4463 24.1909 29.0513 24.5655 29.4239C24.946 29.8044 25.5645 29.8044 25.945 29.4239L26.0289 29.34C26.3645 29.0044 26.8113 28.819 27.2855 28.819C27.7596 28.819 28.2045 29.0024 28.5518 29.3498C29.2425 30.0444 29.2406 31.1683 28.585 31.8298L20.5558 39.135C18.9381 40.6042 16.8426 41.4159 14.6552 41.4159C12.3138 41.4159 10.1129 40.5047 8.45633 38.8481Z" fill="white"/>
<path d="M28.8577 17.2134C32.0011 15.793 34.0343 12.6555 34.0343 9.22136C34.0343 4.38047 30.0949 0.441025 25.254 0.441024C21.8198 0.441024 18.6823 2.47413 17.2599 5.61749C17.2014 5.74819 17.174 5.88483 17.174 6.01946C17.174 6.39016 17.3887 6.74531 17.7477 6.90921C18.2394 7.12972 18.817 6.91113 19.0394 6.42144C20.1457 3.97465 22.5847 2.39227 25.254 2.39227C29.0197 2.39227 32.0831 5.4556 32.0831 9.22145C32.0831 11.8907 30.5008 14.3297 28.054 15.436C27.5623 15.6565 27.3418 16.236 27.5662 16.7257C27.7886 17.2173 28.366 17.4358 28.8577 17.2134Z" fill="white"/>
</svg>
