<svg width="30" height="29" viewBox="0 0 30 29" fill="none" xmlns="http://www.w3.org/2000/svg">
<path d="M18.0693 14.5C18.0693 16.0328 16.8268 17.2754 15.2939 17.2754C13.7611 17.2754 12.5186 16.0328 12.5186 14.5C12.5186 12.9672 13.7611 11.7246 15.2939 11.7246C16.8268 11.7246 18.0693 12.9672 18.0693 14.5Z" fill="white"/>
<path d="M21.7846 9.58927C21.6512 9.22775 21.4384 8.90051 21.1618 8.63191C20.8932 8.35535 20.5662 8.1425 20.2045 8.00909C19.9111 7.89514 19.4703 7.75951 18.6586 7.72256C17.7804 7.68252 17.5171 7.67389 15.294 7.67389C13.0706 7.67389 12.8073 7.6823 11.9294 7.72234C11.1176 7.75951 10.6767 7.89514 10.3835 8.00909C10.0218 8.1425 9.69452 8.35535 9.42614 8.63191C9.14957 8.90051 8.93673 9.22752 8.80309 9.58927C8.68915 9.88265 8.55352 10.3236 8.51657 11.1354C8.47652 12.0133 8.4679 12.2766 8.4679 14.5C8.4679 16.7231 8.47652 16.9864 8.51657 17.8646C8.55352 18.6763 8.68915 19.1171 8.80309 19.4104C8.93673 19.7722 9.14935 20.0992 9.42592 20.3678C9.69452 20.6444 10.0215 20.8572 10.3833 20.9906C10.6767 21.1048 11.1176 21.2404 11.9294 21.2774C12.8073 21.3174 13.0704 21.3258 15.2938 21.3258C17.5173 21.3258 17.7806 21.3174 18.6583 21.2774C19.4701 21.2404 19.9111 21.1048 20.2045 20.9906C20.9306 20.7105 21.5045 20.1366 21.7846 19.4104C21.8986 19.1171 22.0342 18.6763 22.0714 17.8646C22.1114 16.9864 22.1198 16.7231 22.1198 14.5C22.1198 12.2766 22.1114 12.0133 22.0714 11.1354C22.0344 10.3236 21.8988 9.88265 21.7846 9.58927ZM15.294 18.7752C12.9325 18.7752 11.0183 16.8612 11.0183 14.4997C11.0183 12.1383 12.9325 10.2243 15.294 10.2243C17.6552 10.2243 19.5695 12.1383 19.5695 14.4997C19.5695 16.8612 17.6552 18.7752 15.294 18.7752ZM19.7385 11.0544C19.1867 11.0544 18.7393 10.607 18.7393 10.0552C18.7393 9.50343 19.1867 9.05605 19.7385 9.05605C20.2903 9.05605 20.7377 9.50343 20.7377 10.0552C20.7374 10.607 20.2903 11.0544 19.7385 11.0544Z" fill="white"/>
<path d="M15.2939 0C7.28704 0 0.793945 6.4931 0.793945 14.5C0.793945 22.5069 7.28704 29 15.2939 29C23.3008 29 29.7939 22.5069 29.7939 14.5C29.7939 6.4931 23.3008 0 15.2939 0ZM23.5699 17.9327C23.5296 18.8191 23.3887 19.4242 23.1829 19.9539C22.7504 21.0723 21.8662 21.9564 20.7478 22.389C20.2184 22.5947 19.613 22.7355 18.7269 22.7759C17.839 22.8164 17.5554 22.8262 15.2942 22.8262C13.0327 22.8262 12.7493 22.8164 11.8612 22.7759C10.9751 22.7355 10.3698 22.5947 9.84029 22.389C9.28451 22.1799 8.78138 21.8522 8.36543 21.4285C7.94195 21.0128 7.61427 20.5094 7.40519 19.9539C7.19942 19.4244 7.05849 18.8191 7.01822 17.933C6.97729 17.0448 6.96777 16.7612 6.96777 14.5C6.96777 12.2388 6.97729 11.9552 7.018 11.0673C7.05827 10.1809 7.19898 9.57581 7.40475 9.04613C7.61383 8.49056 7.94173 7.98721 8.36543 7.57148C8.78116 7.14778 9.28451 6.82011 9.84007 6.61102C10.3698 6.40526 10.9749 6.26454 11.8612 6.22405C12.7491 6.18356 13.0327 6.17383 15.2939 6.17383C17.5551 6.17383 17.8388 6.18356 18.7267 6.22427C19.613 6.26454 20.2181 6.40526 20.7478 6.6108C21.3034 6.81989 21.8067 7.14778 22.2227 7.57148C22.6462 7.98743 22.9741 8.49056 23.1829 9.04613C23.3889 9.57581 23.5296 10.1809 23.5701 11.0673C23.6106 11.9552 23.6201 12.2388 23.6201 14.5C23.6201 16.7612 23.6106 17.0448 23.5699 17.9327Z" fill="white"/>
</svg>
