<svg width="30" height="29" viewBox="0 0 30 29" fill="none" xmlns="http://www.w3.org/2000/svg">
<path d="M15.1908 28.7937C23.1419 28.7937 29.5876 22.348 29.5876 14.3968C29.5876 6.44568 23.1419 0 15.1908 0C7.23963 0 0.793945 6.44568 0.793945 14.3968C0.793945 22.348 7.23963 28.7937 15.1908 28.7937Z" fill="white"/>
<path d="M23.7926 15.5551V21.4906H20.3514V15.9529C20.3514 14.5624 19.8545 13.6128 18.6086 13.6128C17.6577 13.6128 17.0928 14.2521 16.8434 14.8711C16.7528 15.0923 16.7295 15.3995 16.7295 15.7098V21.4903H13.2879C13.2879 21.4903 13.3341 12.1113 13.2879 11.1404H16.7297V12.6071C16.7228 12.6186 16.713 12.6299 16.7069 12.641H16.7297V12.6071C17.187 11.9034 18.0026 10.8974 19.8312 10.8974C22.0952 10.8974 23.7926 12.3766 23.7926 15.5551ZM9.68784 6.15137C8.51065 6.15137 7.74048 6.9241 7.74048 7.93936C7.74048 8.93306 8.48832 9.72812 9.64267 9.72812H9.665C10.8653 9.72812 11.6116 8.93306 11.6116 7.93936C11.5888 6.9241 10.8653 6.15137 9.68784 6.15137ZM7.94502 21.4906H11.3852V11.1404H7.94502V21.4906Z" fill="#002EA7"/>
</svg>
