<svg width="29" height="29" viewBox="0 0 29 29" fill="none" xmlns="http://www.w3.org/2000/svg">
<path d="M14.3968 28.7937C22.348 28.7937 28.7937 22.348 28.7937 14.3968C28.7937 6.44568 22.348 0 14.3968 0C6.44568 0 0 6.44568 0 14.3968C0 22.348 6.44568 28.7937 14.3968 28.7937Z" fill="#55ACEE"/>
<path d="M23.2154 10.3467C22.5985 10.6203 21.9348 10.8053 21.2388 10.888C21.9494 10.4622 22.4948 9.78852 22.7522 8.98448C22.0873 9.37893 21.3504 9.66508 20.5669 9.81932C19.9392 9.15078 19.0448 8.73297 18.0545 8.73297C16.1543 8.73297 14.6132 10.2741 14.6132 12.1742C14.6132 12.4439 14.6437 12.7065 14.7028 12.9585C11.8428 12.815 9.30698 11.4451 7.60958 9.3625C7.31342 9.87064 7.14353 10.4622 7.14353 11.0928C7.14353 12.2864 7.7515 13.3401 8.67437 13.9571C8.11054 13.9394 7.57955 13.7846 7.11581 13.5262C7.11555 13.5408 7.11555 13.5554 7.11555 13.5698C7.11555 15.2372 8.30224 16.6279 9.8762 16.9438C9.58774 17.0229 9.28311 17.0647 8.96976 17.0647C8.74751 17.0647 8.53219 17.0434 8.32226 17.0034C8.76009 18.3702 10.0307 19.3652 11.5369 19.3932C10.3589 20.3163 8.87532 20.8663 7.26261 20.8663C6.98544 20.8663 6.71084 20.8501 6.44214 20.818C7.96425 21.7948 9.77355 22.3643 11.7168 22.3643C18.0465 22.3643 21.508 17.1206 21.508 12.5728C21.508 12.4237 21.5047 12.2751 21.498 12.1278C22.1709 11.6427 22.7543 11.0368 23.2154 10.3467Z" fill="white"/>
</svg>
