<svg width="32" height="32" viewBox="0 0 32 32" fill="none" xmlns="http://www.w3.org/2000/svg">
<path d="M0 16C0 24.8366 7.16344 32 16 32C24.8366 32 32 24.8366 32 16C32 7.16344 24.8366 0 16 0C7.16344 0 0 7.16344 0 16Z" fill="#7D3DAF"/>
<path d="M26.12 10.315L26.1136 10.2897C25.6025 8.22326 23.2979 6.00581 21.1816 5.54448L21.1577 5.53957C17.7347 4.88655 14.2638 4.88655 10.8415 5.53957L10.8169 5.54448C8.70125 6.00581 6.39674 8.22326 5.88485 10.2897L5.87924 10.315C5.24729 13.2009 5.24729 16.1276 5.87924 19.0135L5.88485 19.0388C6.3749 21.017 8.50781 23.1326 10.5451 23.7144V26.0212C10.5451 26.8561 11.5626 27.2661 12.1412 26.6637L14.4783 24.2342C14.9852 24.2626 15.4924 24.2784 15.9996 24.2784C17.7227 24.2784 19.4465 24.1155 21.1577 23.789L21.1816 23.7841C23.2979 23.3228 25.6025 21.1053 26.1136 19.0388L26.12 19.0136C26.7519 16.1276 26.7519 13.2009 26.12 10.315ZM24.2704 18.595C23.9292 19.9432 22.1794 21.6192 20.7891 21.9289C18.969 22.275 17.1345 22.4229 15.3018 22.3722C15.2654 22.3712 15.2304 22.3853 15.2049 22.4114C14.9449 22.6784 13.4985 24.1632 13.4985 24.1632L11.6834 26.026C11.5507 26.1644 11.3175 26.0703 11.3175 25.8793V22.0579C11.3175 21.9948 11.2725 21.9412 11.2105 21.929C11.2101 21.929 11.2098 21.9289 11.2094 21.9288C9.81911 21.6192 8.07 19.9431 7.72805 18.5949C7.15929 15.9864 7.15929 13.342 7.72805 10.7334C8.07 9.38527 9.81911 7.7092 11.2094 7.39954C14.3881 6.79497 17.6111 6.79497 20.7891 7.39954C22.1801 7.7092 23.9292 9.38527 24.2704 10.7334C24.8398 13.3421 24.8398 15.9864 24.2704 18.595Z" fill="white"/>
<path d="M19.0245 20.3586C18.8108 20.2937 18.6071 20.2501 18.4179 20.1716C16.4577 19.3583 14.6537 18.3091 13.2247 16.7008C12.4121 15.7862 11.7761 14.7537 11.2384 13.661C10.9835 13.1428 10.7686 12.6043 10.5496 12.0693C10.3499 11.5815 10.6441 11.0774 10.9538 10.7099C11.2444 10.3649 11.6184 10.1009 12.0234 9.90629C12.3395 9.75441 12.6514 9.84197 12.8822 10.1099C13.3813 10.6892 13.8398 11.2981 14.211 11.9696C14.4393 12.3826 14.3767 12.8875 13.9629 13.1686C13.8624 13.2369 13.7708 13.3171 13.6771 13.3942C13.5949 13.4619 13.5176 13.5302 13.4613 13.6217C13.3584 13.7893 13.3535 13.9869 13.4197 14.169C13.9299 15.5711 14.7899 16.6614 16.2011 17.2486C16.4269 17.3425 16.6537 17.4519 16.9139 17.4216C17.3496 17.3707 17.4906 16.8928 17.7959 16.6431C18.0944 16.3991 18.4757 16.3959 18.7972 16.5993C19.1187 16.8028 19.4304 17.0212 19.7402 17.242C20.0443 17.4587 20.3471 17.6707 20.6276 17.9177C20.8973 18.1552 20.9902 18.4668 20.8383 18.7892C20.5602 19.3796 20.1556 19.8708 19.572 20.1843C19.4072 20.2727 19.2104 20.3013 19.0245 20.3586C19.2104 20.3013 18.8108 20.2936 19.0245 20.3586Z" fill="white"/>
<path d="M16.0055 9.23154C18.5694 9.30337 20.6753 11.0049 21.1266 13.5398C21.2035 13.9717 21.2309 14.4133 21.2651 14.8516C21.2795 15.036 21.175 15.2112 20.976 15.2136C20.7705 15.216 20.678 15.0441 20.6647 14.8598C20.6383 14.4949 20.62 14.1285 20.5697 13.7666C20.3043 11.8567 18.7813 10.2765 16.8802 9.93743C16.5941 9.88638 16.3013 9.87297 16.0115 9.84256C15.8283 9.82332 15.5884 9.81223 15.5478 9.58452C15.5137 9.3936 15.6749 9.24158 15.8567 9.23182C15.9061 9.22908 15.9558 9.23132 16.0055 9.23154C15.9558 9.23132 18.5694 9.30337 16.0055 9.23154Z" fill="white"/>
<path d="M19.9024 14.282C19.8982 14.314 19.896 14.3893 19.8772 14.4602C19.8092 14.7176 19.4189 14.7498 19.3291 14.49C19.3024 14.4129 19.2984 14.3252 19.2983 14.2422C19.2974 13.6992 19.1793 13.1567 18.9055 12.6842C18.624 12.1986 18.1939 11.7903 17.6895 11.5433C17.3845 11.3939 17.0546 11.3011 16.7203 11.2458C16.5742 11.2216 16.4265 11.207 16.2797 11.1865C16.1017 11.1618 16.0067 11.0484 16.0152 10.8731C16.023 10.7088 16.1431 10.5906 16.3222 10.6007C16.9106 10.6341 17.4789 10.7613 18.002 11.0383C19.0658 11.6016 19.6735 12.4909 19.8508 13.6782C19.8588 13.732 19.8718 13.7853 19.8758 13.8393C19.8859 13.9727 19.8922 14.1061 19.9024 14.282C19.8922 14.1061 19.8982 14.314 19.9024 14.282Z" fill="white"/>
<path d="M18.307 14.2205C18.0925 14.2244 17.9777 14.1057 17.9555 13.909C17.9402 13.7718 17.928 13.6329 17.8953 13.4995C17.8308 13.2367 17.6912 12.9932 17.4701 12.8322C17.3658 12.7562 17.2475 12.7008 17.1237 12.665C16.9663 12.6196 16.8029 12.6321 16.6459 12.5936C16.4754 12.5518 16.3811 12.4138 16.408 12.2538C16.4323 12.1083 16.574 11.9947 16.733 12.0062C17.7271 12.0779 18.4375 12.5919 18.5389 13.7621C18.5461 13.8447 18.5545 13.9319 18.5362 14.0109C18.5048 14.1462 18.4046 14.2139 18.307 14.2205C18.4046 14.2139 18.0925 14.2244 18.307 14.2205Z" fill="white"/>
</svg>
