<svg width="30" height="29" viewBox="0 0 30 29" fill="none" xmlns="http://www.w3.org/2000/svg">
<circle cx="14.7939" cy="14.5" r="14.5" fill="white"/>
<path d="M24.7243 9.5189C24.4856 8.63169 23.7859 7.93231 22.8986 7.69342C21.2776 7.25 14.7937 7.25 14.7937 7.25C14.7937 7.25 8.30996 7.25 6.689 7.6766C5.81878 7.91525 5.10204 8.63182 4.86334 9.5189C4.43677 11.1394 4.43677 14.5 4.43677 14.5C4.43677 14.5 4.43677 17.8776 4.86334 19.4811C5.1023 20.3682 5.80171 21.0676 6.68912 21.3065C8.32702 21.75 14.7939 21.75 14.7939 21.75C14.7939 21.75 21.2776 21.75 22.8986 21.3234C23.786 21.0846 24.4856 20.3852 24.7245 19.4982C25.151 17.8776 25.151 14.5171 25.151 14.5171C25.151 14.5171 25.168 11.1394 24.7243 9.5189ZM12.7293 17.6047V11.3953L18.1211 14.5L12.7293 17.6047Z" fill="#B90000"/>
</svg>
