<svg width="36" height="42" viewBox="0 0 36 42" fill="none" xmlns="http://www.w3.org/2000/svg">
<path d="M35.1678 16.5624C33.0061 8.66727 27.4137 3.68581 19.5185 1.57104C11.4824 -0.590726 4.85614 2.8869 1.89546 10.688C-0.172315 15.9985 -0.548274 21.4969 0.767583 27.0423C1.98945 32.2587 4.85614 36.4882 9.50863 39.3079C11.2944 40.3888 13.3152 40.9998 15.195 41.8457H20.8344C24.124 40.8118 27.3667 39.6839 29.8104 37.0992C35.4498 31.2718 37.2356 24.2226 35.1678 16.5624ZM15.195 23.8936C14.0201 21.5439 12.7983 19.1941 11.4354 16.4684C10.1196 19.0531 8.70972 21.1679 7.86381 23.4707C6.82992 26.3373 4.95013 26.9953 1.98945 26.2434C2.78836 24.6455 3.58728 23.0947 4.38619 21.5439C5.37308 19.6171 6.54796 17.7373 7.39386 15.7165C8.28677 13.5547 9.60262 12.6148 11.9994 12.8968C13.3622 13.0378 14.2551 13.2728 14.913 14.6356C16.8398 18.4892 18.9076 22.2488 20.9284 26.0084C17.4978 27.1363 16.6989 26.8073 15.195 23.8936ZM34.4159 26.4783H21.8683V13.1318H25.7219V23.0947H34.4629V26.4783H34.4159Z" fill="white"/>
</svg>
