<svg width="681" height="158" viewBox="0 0 681 158" fill="none" xmlns="http://www.w3.org/2000/svg">
<path d="M136.636 60.2606C128.298 29.8067 106.726 10.5916 76.2724 2.43434C45.2746 -5.90425 19.715 7.51 8.29477 37.6014C0.318728 58.0853 -1.13146 79.2943 3.9442 100.685C8.65731 120.806 19.715 137.121 37.6611 147.997C44.5495 152.166 52.3442 154.523 59.5952 157.786H81.348C94.0372 153.798 106.545 149.447 115.971 139.477C137.724 116.999 144.613 89.8082 136.636 60.2606ZM59.5952 88.5393C55.0634 79.4756 50.3502 70.4119 45.0933 59.8981C40.0177 69.8681 34.5794 78.0254 31.3165 86.9078C27.3285 97.9655 20.0776 100.503 8.65731 97.603C11.739 91.4397 14.8206 85.4576 17.9023 79.4756C21.709 72.0434 26.2409 64.7924 29.5038 56.9977C32.948 48.6591 38.0236 45.0336 47.2686 46.1213C52.5255 46.6651 55.9697 47.5715 58.5076 52.8284C65.9398 67.6928 73.9158 82.1947 81.7106 96.6966C68.4776 101.047 65.396 99.7782 59.5952 88.5393ZM133.736 98.5093H85.336V47.0276H100.2V85.4576H133.917V98.5093H133.736Z" fill="white"/>
<path d="M285.279 74.4004C290.174 71.3187 293.437 69.1434 297.243 66.6056C333.136 89.0835 372.653 89.0835 412.896 80.2011C436.461 75.1254 459.665 68.5996 483.049 62.9801C512.234 56.0917 541.419 47.5719 570.967 43.04C611.572 36.8767 648.37 48.6595 681 75.488C667.585 69.506 655.259 62.7988 642.207 58.0857C607.584 45.3966 572.598 49.5659 538.156 58.8108C501.901 68.5996 465.828 79.8386 429.392 88.9022C393.681 97.7846 357.426 102.498 321.534 90.1712C309.389 86.3644 297.968 80.0198 285.279 74.4004Z" fill="white"/>
<path d="M278.392 70.412C267.878 70.412 257.364 70.5933 246.85 70.412C235.43 70.0494 230.536 64.9738 230.354 53.7348C230.354 48.8404 230.354 44.1273 230.354 39.2329C230.536 28.5378 235.43 22.9183 245.944 22.3745C256.82 22.0119 267.697 21.8307 278.573 22.3745C289.268 22.9183 294.344 28.5378 294.525 39.2329C294.707 46.6651 294.525 54.0974 294.525 62.6172C285.462 57.9041 278.211 54.2786 280.205 43.7648C280.567 42.3146 280.205 40.5018 279.661 39.4142C273.498 27.6314 262.621 33.6134 253.739 32.8883C247.576 32.3445 244.313 36.8764 244.131 43.5835C243.769 57.3603 246.125 59.173 259.902 60.4419C266.428 60.9857 272.773 64.9738 279.298 67.5116C279.117 68.418 278.755 69.5056 278.392 70.412Z" fill="white"/>
<path d="M666.501 87.6328C666.501 91.2583 666.501 93.9774 666.501 97.6029C654.174 97.6029 641.848 97.6029 629.702 97.6029C627.527 103.947 628.252 107.029 634.959 106.848C644.204 106.667 653.63 106.848 663.782 106.848C663.963 109.748 664.144 112.105 664.325 115.549C653.993 115.549 644.385 115.368 634.778 115.549C628.615 115.73 628.615 115.911 629.521 123.525C641.304 123.525 653.268 123.525 666.138 123.525C666.501 126.969 666.682 129.87 667.045 133.314C649.824 133.314 633.146 133.314 615.744 133.314C615.744 118.087 615.744 102.86 615.744 87.6328C632.784 87.6328 649.28 87.6328 666.501 87.6328Z" fill="white"/>
<path d="M304.677 22.918C309.753 22.918 313.56 22.918 318.273 22.918C318.273 32.3442 318.454 41.2266 318.273 50.2903C318.091 56.6349 321.173 59.7165 327.518 59.8978C328.062 59.8978 328.787 59.8978 329.33 59.8978C349.633 60.6229 349.996 60.0791 349.996 39.9577C349.996 34.5195 349.996 29.0813 349.996 23.0992C354.346 23.0992 358.334 23.0992 363.41 23.0992C363.41 34.882 364.135 46.8461 363.047 58.8101C362.503 65.8798 357.065 70.4116 349.271 70.4116C339.119 70.4116 328.787 70.5929 318.635 70.4116C310.478 70.2304 305.402 65.6985 304.858 57.7225C304.133 46.4835 304.677 35.0633 304.677 22.918Z" fill="white"/>
<path d="M600.152 97.9658C587.826 97.9658 575.862 97.9658 563.535 97.9658C563.535 101.229 563.535 103.767 563.535 107.392C574.774 107.392 585.832 107.392 597.433 107.392C597.433 111.199 597.433 114.099 597.433 117.906C586.194 117.906 575.318 117.906 563.535 117.906C563.354 123.525 562.991 128.238 562.81 133.495C558.459 133.495 554.471 133.495 549.939 133.495C549.939 118.268 549.939 103.223 549.939 87.8145C566.798 87.8145 583.294 87.8145 600.152 87.8145C600.152 90.8961 600.152 94.159 600.152 97.9658Z" fill="white"/>
<path d="M369.212 69.3242C376.825 55.1849 384.258 41.4081 391.871 27.8126C395.315 21.6492 410.724 21.1054 414.168 27.2687C422.144 41.0455 429.576 55.0036 437.19 69.1429C427.038 72.4059 421.056 69.6867 417.249 60.0793C413.624 51.1968 408.548 43.0395 403.291 33.0695C398.216 42.4957 393.321 50.2905 389.877 58.6291C385.889 68.0553 380.632 73.131 369.212 69.3242Z" fill="white"/>
<path d="M157.665 69.5057C165.46 55.185 173.073 40.8644 181.049 26.9064C183.95 21.8307 199.539 21.8307 202.44 26.9064C210.416 40.8644 217.848 55.185 225.643 69.5057C215.31 72.406 209.509 69.3244 205.521 59.8982C201.896 51.197 196.82 43.0397 191.563 33.4322C186.306 43.221 181.049 51.197 177.424 60.0794C173.98 69.5056 167.816 72.2248 157.665 69.5057Z" fill="white"/>
<path d="M455.497 133.677C455.497 118.088 455.497 103.404 455.497 87.9961C459.666 87.9961 463.654 87.9961 468.368 87.9961C468.368 99.4163 468.368 110.837 468.368 123.163C479.063 123.163 489.033 123.163 500.272 123.163C500.453 127.151 500.634 130.052 500.997 133.677C485.407 133.677 470.905 133.677 455.497 133.677Z" fill="white"/>
<path d="M517.129 87.6328C521.117 87.6328 524.38 87.6328 528.549 87.6328C528.549 102.86 528.549 117.905 528.549 133.676C524.924 133.676 521.479 133.676 517.129 133.676C517.129 118.631 517.129 103.585 517.129 87.6328Z" fill="white"/>
</svg>
